<?xml version="1.0" encoding="UTF-8" standalone="no"?>
<!DOCTYPE svg PUBLIC "-//W3C//DTD SVG 1.1//EN" "http://www.w3.org/Graphics/SVG/1.1/DTD/svg11.dtd">
<svg version="1.1" xmlns="http://www.w3.org/2000/svg" xmlns:xlink="http://www.w3.org/1999/xlink" preserveAspectRatio="xMidYMid meet" viewBox="0 0 1280 648.63" width="1280" height="648.63"><defs><path d="M1280 0L1280 648.63L0 648.63L0 0L1280 0Z" id="a39I4S1SZD"></path><linearGradient id="gradientf1B1w7ht6P" gradientUnits="userSpaceOnUse" x1="-180.84" y1="-95.51" x2="1280" y2="648.63"><stop style="stop-color: #d47efc;stop-opacity: 1" offset="0%"></stop><stop style="stop-color: #cc7efb;stop-opacity: 1" offset="8.5449716%"></stop><stop style="stop-color: #cc7efb;stop-opacity: 1" offset="8.5449716%"></stop><stop style="stop-color: #7182ee;stop-opacity: 1" offset="100%"></stop></linearGradient><path d="M674.69 424.4L691.76 426.13L708.61 428.54L725.25 431.59L741.65 435.29L757.81 439.62L773.7 444.56L789.32 450.11L804.65 456.24L819.68 462.95L834.39 470.21L848.78 478.03L862.82 486.38L876.5 495.24L889.82 504.61L902.75 514.48L915.28 524.82L927.41 535.63L939.11 546.89L950.37 558.59L961.18 570.72L971.52 583.25L981.39 596.18L990.76 609.5L999.62 623.18L1007.97 637.22L1014.17 648.63L265.83 648.63L272.03 637.22L280.38 623.18L289.24 609.5L298.61 596.18L308.48 583.25L318.82 570.72L329.63 558.59L340.89 546.89L352.59 535.63L364.72 524.82L377.25 514.48L390.18 504.61L403.5 495.24L417.18 486.38L431.22 478.03L445.61 470.21L460.32 462.95L475.35 456.24L490.68 450.11L506.3 444.56L522.19 439.62L538.35 435.29L554.75 431.59L571.39 428.54L588.24 426.13L605.31 424.4L622.56 423.35L640 423L657.44 423.35L674.69 424.4Z" id="b1uiFPGsy"></path><path d="M668.26 509.12L681.92 510.51L695.41 512.43L708.72 514.88L721.85 517.84L734.77 521.3L747.49 525.26L759.99 529.69L772.26 534.6L784.29 539.97L796.06 545.78L807.57 552.04L818.81 558.72L829.76 565.81L840.41 573.31L850.76 581.21L860.79 589.48L870.49 598.13L879.86 607.14L888.87 616.51L897.52 626.21L905.79 636.24L913.69 646.59L915.12 648.63L365.88 648.63L367.31 646.59L375.21 636.24L383.48 626.21L392.13 616.51L401.14 607.14L410.51 598.13L420.21 589.48L430.24 581.21L440.59 573.31L451.24 565.81L462.19 558.72L473.43 552.04L484.94 545.78L496.71 539.97L508.74 534.6L521.01 529.69L533.51 525.26L546.23 521.3L559.15 517.84L572.28 514.88L585.59 512.43L599.08 510.51L612.74 509.12L626.55 508.28L640.5 508L654.45 508.28L668.26 509.12Z" id="b2sIwMSc"></path><path d="M674.16 578.01L684.96 579.55L695.62 581.51L706.12 583.88L716.47 586.65L726.66 589.82L736.66 593.37L746.49 597.3L756.11 601.59L765.54 606.25L774.76 611.25L783.75 616.6L792.52 622.28L801.05 628.29L809.33 634.61L817.36 641.23L825.13 648.16L825.61 648.63L456.39 648.63L456.87 648.16L464.64 641.23L472.67 634.61L480.95 628.29L489.48 622.28L498.25 616.6L507.24 611.25L516.46 606.25L525.89 601.59L535.51 597.3L545.34 593.37L555.34 589.82L565.53 586.65L575.88 583.88L586.38 581.51L597.04 579.55L607.84 578.01L618.77 576.9L629.83 576.23L641 576L652.17 576.23L663.23 576.9L663.23 576.9L674.16 578.01Z" id="gYMept8cw"></path></defs><g><g><g><use xlink:href="#a39I4S1SZD" opacity="1" fill="url(#gradientf1B1w7ht6P)"></use><g><use xlink:href="#a39I4S1SZD" opacity="1" fill-opacity="0" stroke="#000000" stroke-width="1" stroke-opacity="0"></use></g></g><g><use xlink:href="#b1uiFPGsy" opacity="1" fill="#ffffff" fill-opacity="0.32"></use><g><use xlink:href="#b1uiFPGsy" opacity="1" fill-opacity="0" stroke="#000000" stroke-width="1" stroke-opacity="0"></use></g></g><g><use xlink:href="#b2sIwMSc" opacity="1" fill="#ffffff" fill-opacity="0.21"></use><g><use xlink:href="#b2sIwMSc" opacity="1" fill-opacity="0" stroke="#000000" stroke-width="1" stroke-opacity="0"></use></g></g><g><use xlink:href="#gYMept8cw" opacity="1" fill="#ffffff" fill-opacity="0.23"></use><g><use xlink:href="#gYMept8cw" opacity="1" fill-opacity="0" stroke="#000000" stroke-width="1" stroke-opacity="0"></use></g></g></g></g></svg>