<?xml version="1.0" encoding="UTF-8"?>
<svg width="72px" height="141px" viewBox="0 0 72 141" version="1.1" xmlns="http://www.w3.org/2000/svg" xmlns:xlink="http://www.w3.org/1999/xlink">
    <!-- Generator: Sketch 47 (45396) - http://www.bohemiancoding.com/sketch -->
    <title>illustration-2</title>
    <desc>Created with Sketch.</desc>
    <defs>
        <path d="M12.6805426,100 L58.6861449,100 L58.6861449,100 C60.3363073,100 61.8171068,101.013344 62.4146673,102.551511 L71.7383978,126.551511 L71.7383978,126.551511 C72.5383762,128.610717 71.5175705,130.928544 69.4583645,131.728522 C68.9965158,131.907945 68.5053517,132 68.0098754,132 L4.16861066,132 L4.16861066,132 C1.95947167,132 0.168610665,130.209139 0.168610665,128 C0.168610665,127.544466 0.24642344,127.092278 0.398691953,126.662946 L8.91062392,102.662946 L8.91062392,102.662946 C9.47676044,101.066684 10.9868591,100 12.6805426,100 Z" id="path-1"></path>
        <path d="M17.6,6 L17.6,6 L17.6,6 C19.0359403,6 20.2,7.16405965 20.2,8.6 L20.2,12.2551724 L20.2,12.2551724 C20.2,13.5806558 19.1254834,14.6551724 17.8,14.6551724 L17.4,14.6551724 L17.4,14.6551724 C16.0745166,14.6551724 15,13.5806558 15,12.2551724 L15,8.6 L15,8.6 C15,7.16405965 16.1640597,6 17.6,6 Z" id="path-2"></path>
        <path d="M10.4,12 L24.8,12 L24.8,12 C26.1254834,12 27.2,13.0745166 27.2,14.4 L27.2,17.2551724 L27.2,17.2551724 C27.2,18.5806558 26.1254834,19.6551724 24.8,19.6551724 L10.4,19.6551724 L10.4,19.6551724 C9.0745166,19.6551724 8,18.5806558 8,17.2551724 L8,14.4 L8,14.4 C8,13.0745166 9.0745166,12 10.4,12 Z" id="path-3"></path>
        <path d="M11,3.6801508e-14 L24.2,3.6801508e-14 L24.2,3.68594044e-14 C25.8568542,3.65550418e-14 27.2,1.34314575 27.2,3 L27.2,6.25517241 L27.2,6.25517241 C27.2,7.58065581 26.1254834,8.65517241 24.8,8.65517241 L10.4,8.65517241 L10.4,8.65517241 C9.0745166,8.65517241 8,7.58065581 8,6.25517241 L8,3 L8,3 C8,1.34314575 9.34314575,3.67196779e-14 11,3.64153152e-14 Z" id="path-4"></path>
        <path d="M2.4,17 L33.7423816,17 L33.7423816,17 C35.067865,17 36.1423816,18.0745166 36.1423816,19.4 L36.1423816,73.7586207 L36.1423816,73.7586207 C36.1423816,77.0723292 33.4560901,79.7586207 30.1423816,79.7586207 L6,79.7586207 L6,79.7586207 C2.6862915,79.7586207 6.59691566e-15,77.0723292 1.77635684e-15,73.7586207 L0,19.4 L0,19.4 C-1.623249e-16,18.0745166 1.0745166,17 2.4,17 Z" id="path-5"></path>
    </defs>
    <g id="Page-1" stroke="none" stroke-width="1" fill="none" fill-rule="evenodd">
        <g id="troveskin---web@2x" transform="translate(-224.000000, -1251.000000)">
            <g id="illustration-2" transform="translate(160.000000, 1221.000000)">
                <rect id="Rectangle-Copy" x="0" y="0" width="200" height="200"></rect>
                <g id="Group-15-Copy" transform="translate(64.000000, 30.000000)">
                    <g id="Group-12" transform="translate(3.000000, 36.000000)" stroke-linecap="square" stroke-width="2" stroke="#DFE1FF">
                        <polyline id="Line" points="0 8.03848204 7.97796045 0.173984586 16.0507348 8.13329597 24.4002092 0.173984586 32.269032 8.03848204 40.2864168 0.173984586 48.1089036 8.17398459 56.2828882 0 65.6041208 9.32123267"></polyline>
                        <polyline id="Line-Copy" points="0 17.038482 7.97796045 9.17398459 16.0507348 17.133296 24.4002092 9.17398459 32.269032 17.038482 40.2864168 9.17398459 48.1089036 17.1739846 56.2828882 9 65.6041208 18.3212327"></polyline>
                        <polyline id="Line-Copy-2" points="0 26.038482 7.97796045 18.1739846 16.0507348 26.133296 24.4002092 18.1739846 32.269032 26.038482 40.2864168 18.1739846 48.1089036 26.1739846 56.2828882 18 65.6041208 27.3212327"></polyline>
                    </g>
                    <path d="M15.9300657,115 L54.5274614,115 L54.5274614,115 C55.3091094,115 56.019127,115.455362 56.3451663,116.165764 L66.442066,138.165764 L66.442066,138.165764 C66.9028016,139.169655 66.4624874,140.356969 65.4585967,140.817705 C65.1968842,140.937818 64.9123205,141 64.6243611,141 L6.56493694,141 L6.56493694,141 C5.46036744,141 4.56493694,140.104569 4.56493694,139 C4.56493694,138.730789 4.61928733,138.464349 4.72473095,138.216647 L14.0898597,116.216647 L14.0898597,116.216647 C14.4039172,115.478882 15.1282369,115 15.9300657,115 Z" id="Rectangle-8-Copy-2" fill="#DFE1FF"></path>
                    <g id="Rectangle-8-Copy">
                        <use fill="#FFFFFF" fill-rule="evenodd" xlink:href="#path-1"></use>
                        <path stroke="#9298FD" stroke-width="2" d="M12.6805426,101 C11.41028,101 10.277706,101.800013 9.8531036,102.99721 L1.34117163,126.99721 C1.22697025,127.319209 1.16861066,127.658349 1.16861066,128 C1.16861066,129.656854 2.51175642,131 4.16861066,131 L68.0098754,131 C68.3814827,131 68.7498557,130.930959 69.0962422,130.796392 C70.6406468,130.196408 71.406251,128.458038 70.8062672,126.913633 L61.4825367,102.913633 C61.0343663,101.760008 59.9237667,101 58.6861449,101 L12.6805426,101 Z"></path>
                    </g>
                    <g id="Group-14" transform="translate(18.000000, 41.000000)">
                        <g id="Rectangle-5-Copy-16">
                            <use fill="#FFFFFF" fill-rule="evenodd" xlink:href="#path-2"></use>
                            <path stroke="#9298FD" stroke-width="2" d="M17.6,7 C16.7163444,7 16,7.7163444 16,8.6 L16,12.2551724 C16,13.0283711 16.6268014,13.6551724 17.4,13.6551724 L17.8,13.6551724 C18.5731986,13.6551724 19.2,13.0283711 19.2,12.2551724 L19.2,8.6 C19.2,7.7163444 18.4836556,7 17.6,7 Z"></path>
                        </g>
                        <g id="Rectangle-5-Copy">
                            <use fill="#FFFFFF" fill-rule="evenodd" xlink:href="#path-3"></use>
                            <path stroke="#9298FD" stroke-width="2" d="M10.4,13 C9.62680135,13 9,13.6268014 9,14.4 L9,17.2551724 C9,18.0283711 9.62680135,18.6551724 10.4,18.6551724 L24.8,18.6551724 C25.5731986,18.6551724 26.2,18.0283711 26.2,17.2551724 L26.2,14.4 C26.2,13.6268014 25.5731986,13 24.8,13 L10.4,13 Z"></path>
                        </g>
                        <g id="Rectangle-5-Copy-15">
                            <use fill="#FFFFFF" fill-rule="evenodd" xlink:href="#path-4"></use>
                            <path stroke="#9298FD" stroke-width="2" d="M11,1 C9.8954305,1 9,1.8954305 9,3 L9,6.25517241 C9,7.02837106 9.62680135,7.65517241 10.4,7.65517241 L24.8,7.65517241 C25.5731986,7.65517241 26.2,7.02837106 26.2,6.25517241 L26.2,3 C26.2,1.8954305 25.3045695,1 24.2,1 L11,1 Z"></path>
                        </g>
                        <g id="Rectangle-5-Copy-2">
                            <use fill="#FFFFFF" fill-rule="evenodd" xlink:href="#path-5"></use>
                            <path stroke="#9298FD" stroke-width="2" d="M2.4,18 C1.62680135,18 1,18.6268014 1,19.4 L1,73.7586207 C1,76.5200444 3.23857625,78.7586207 6,78.7586207 L30.1423816,78.7586207 C32.9038053,78.7586207 35.1423816,76.5200444 35.1423816,73.7586207 L35.1423816,19.4 C35.1423816,18.6268014 34.5155802,18 33.7423816,18 L2.4,18 Z"></path>
                        </g>
                        <path d="M2,24 L26.0639648,24" id="Line-2" stroke="#9298FD" stroke-width="2" stroke-linecap="round"></path>
                        <path d="M31,24 L34.3076172,24" id="Line-2-Copy" stroke="#9298FD" stroke-width="2" stroke-linecap="round"></path>
                        <path d="M27,4 L32.3076172,4" id="Line-2-Copy-2" stroke="#9298FD" stroke-width="2" stroke-linecap="round"></path>
                        <path d="M5.79839844,28.3793103 L30.3090234,28.3793103 L30.3090234,28.3793103 C31.1043135,28.3793103 31.7490234,29.0240203 31.7490234,29.8193103 L31.7490234,51.7074609 L31.7490234,51.7074609 C31.7490234,52.502751 31.1043135,53.1474609 30.3090234,53.1474609 L5.79839844,53.1474609 L5.79839844,53.1474609 C5.0031084,53.1474609 4.35839844,52.502751 4.35839844,51.7074609 L4.35839844,29.8193103 L4.35839844,29.8193103 C4.35839844,29.0240203 5.0031084,28.3793103 5.79839844,28.3793103 Z" id="Rectangle-5-Copy-3" fill="#DFE1FF"></path>
                    </g>
                    <path d="M36.0838124,13.5505876 L32.1256937,15.3819471 L32.1256937,15.3819471 C31.6244603,15.6138599 31.0301279,15.3955324 30.7982151,14.8942991 C30.7203787,14.7260713 30.6908319,14.53952 30.7128734,14.3554731 L31.2314738,10.0251572 L28.2666215,6.82668375 L28.2666215,6.82668375 C27.8911696,6.42164749 27.9151526,5.78893688 28.3201888,5.41348506 C28.4561302,5.28747301 28.6244205,5.20172481 28.8062708,5.16581393 L33.0849022,4.32089102 L35.2106415,0.512766227 L35.2106415,0.512766227 C35.4798329,0.030527234 36.0889876,-0.142181982 36.5712266,0.127009397 C36.7330793,0.21735749 36.8666353,0.350913446 36.9569834,0.512766227 L39.0827227,4.32089102 L43.3613541,5.16581393 L43.3613541,5.16581393 C43.9031754,5.2728101 44.2556707,5.79878054 44.1486746,6.34060178 C44.1127637,6.52245202 44.0270155,6.69074234 43.9010034,6.82668375 L40.9361511,10.0251572 L41.4547515,14.3554731 L41.4547515,14.3554731 C41.5204241,14.9038393 41.1291235,15.4016162 40.5807572,15.4672887 C40.3967103,15.4893303 40.2101591,15.4597834 40.0419312,15.3819471 L36.0838124,13.5505876 Z" id="Star" fill="#50E3C2"></path>
                    <path d="M57.8497211,24.9399421 L55.2723467,26.1324528 L55.2723467,26.1324528 C54.7711133,26.3643656 54.1767809,26.1460382 53.9448681,25.6448048 C53.8670317,25.476577 53.8374849,25.2900257 53.8595264,25.1059788 L54.197219,22.286244 L52.2666215,20.2035214 L52.2666215,20.2035214 C51.8911696,19.7984851 51.9151526,19.1657745 52.3201888,18.7903227 C52.4561302,18.6643106 52.6244205,18.5785624 52.8062708,18.5426515 L55.5923507,17.9924703 L56.9765502,15.5127662 L56.9765502,15.5127662 C57.2457415,15.0305272 57.8548962,14.857818 58.3371352,15.1270094 C58.498988,15.2173575 58.6325439,15.3509134 58.722892,15.5127662 L60.1070915,17.9924703 L62.8931714,18.5426515 L62.8931714,18.5426515 C63.4349926,18.6496477 63.787488,19.1756182 63.6804918,19.7174394 C63.644581,19.8992896 63.5588328,20.06758 63.4328207,20.2035214 L61.5022231,22.286244 L61.8399157,25.1059788 L61.8399157,25.1059788 C61.9055883,25.6543451 61.5142878,26.1521219 60.9659215,26.2177944 C60.7818746,26.239836 60.5953233,26.2102892 60.4270955,26.1324528 L57.8497211,24.9399421 Z" id="Star-Copy" fill="#50E3C2"></path>
                    <path d="M11.8497211,24.9399421 L9.2723467,26.1324528 L9.2723467,26.1324528 C8.77111333,26.3643656 8.17678091,26.1460382 7.9448681,25.6448048 C7.86703172,25.476577 7.8374849,25.2900257 7.85952644,25.1059788 L8.19721903,22.286244 L6.26662146,20.2035214 L6.26662146,20.2035214 C5.89116964,19.7984851 5.91515256,19.1657745 6.32018882,18.7903227 C6.45613022,18.6643106 6.62442054,18.5785624 6.80627078,18.5426515 L9.59235067,17.9924703 L10.9765502,15.5127662 L10.9765502,15.5127662 C11.2457415,15.0305272 11.8548962,14.857818 12.3371352,15.1270094 C12.498988,15.2173575 12.6325439,15.3509134 12.722892,15.5127662 L14.1070915,17.9924703 L16.8931714,18.5426515 L16.8931714,18.5426515 C17.4349926,18.6496477 17.787488,19.1756182 17.6804918,19.7174394 C17.644581,19.8992896 17.5588328,20.06758 17.4328207,20.2035214 L15.5022231,22.286244 L15.8399157,25.1059788 L15.8399157,25.1059788 C15.9055883,25.6543451 15.5142878,26.1521219 14.9659215,26.2177944 C14.7818746,26.239836 14.5953233,26.2102892 14.4270955,26.1324528 L11.8497211,24.9399421 Z" id="Star-Copy-2" fill="#50E3C2"></path>
                </g>
            </g>
        </g>
    </g>
</svg>