<?xml version="1.0" encoding="UTF-8"?>
<svg width="135px" height="23px" viewBox="0 0 135 23" version="1.1" xmlns="http://www.w3.org/2000/svg" xmlns:xlink="http://www.w3.org/1999/xlink">
    <!-- Generator: Sketch 47 (45396) - http://www.bohemiancoding.com/sketch -->
    <title>logo</title>
    <desc>Created with Sketch.</desc>
    <defs>
        <polygon id="path-1" points="0.12933678 0.156964912 15.1318848 0.156964912 15.1318848 22.7982456 0.12933678 22.7982456 0.12933678 0.156964912"></polygon>
        <polygon id="path-3" points="14.3524742 0.0247149123 14.3524742 15.655636 0.188262186 15.655636 0.188262186 0.0247149123"></polygon>
    </defs>
    <g id="Page-1" stroke="none" stroke-width="1" fill="none" fill-rule="evenodd">
        <g id="troveskin---web@2x" transform="translate(-160.000000, -47.000000)">
            <g id="logo" transform="translate(160.000000, 47.000000)">
                <path d="M17.1815716,0.766949123 C17.367421,0.955589474 17.4609439,1.2005193 17.4609439,1.50194035 C17.4609439,1.78439649 17.367421,2.02024737 17.1815716,2.20868596 C16.9951241,2.39712456 16.7530414,2.49134386 16.4551241,2.49134386 L9.80602511,2.49134386 L9.80602511,21.4580719 C9.80602511,21.759493 9.7035288,22.0187474 9.49893501,22.2350281 C9.29334417,22.451914 9.03291581,22.5602561 8.71645347,22.5602561 C8.41853619,22.5602561 8.16209601,22.451914 7.94793058,22.2350281 C7.73396455,22.0187474 7.62688183,21.759493 7.62688183,21.4580719 L7.62688183,2.49134386 L1.00570015,2.49134386 C0.707583456,2.49134386 0.465301329,2.39712456 0.279053176,2.20868596 C0.0928050222,2.02024737 7.97636632e-05,1.78439649 7.97636632e-05,1.50194035 C7.97636632e-05,1.2005193 0.0928050222,0.955589474 0.279053176,0.766949123 C0.465301329,0.578510526 0.707583456,0.484291228 1.00570015,0.484291228 L16.4551241,0.484291228 C16.7530414,0.484291228 16.9951241,0.578510526 17.1815716,0.766949123" id="Fill-1" fill="#FFFFFF"></path>
                <path d="M25.5770162,7.23983509 C26.033065,7.4472386 26.2615879,7.73937895 26.2615879,8.11625614 C26.2615879,8.2292386 26.2520162,8.31417719 26.2336706,8.37046667 C26.1588922,8.63456316 26.0422378,8.81372105 25.8843058,8.9077386 C25.7257755,9.00215965 25.507223,9.04876491 25.2278508,9.04876491 C25.0603471,9.04876491 24.7714032,9.03040526 24.3618168,8.99247544 C24.21226,8.97391404 23.9891211,8.96422982 23.6914032,8.96422982 C22.2941433,8.96422982 21.1531241,9.34151053 20.2687445,10.0946596 C19.383966,10.8488175 18.9418759,11.8289404 18.9418759,13.0348263 L18.9418759,21.485914 C18.9418759,21.8252649 18.848353,22.0895632 18.6625037,22.2773965 C18.4762555,22.4662386 18.2156278,22.5602561 17.8802216,22.5602561 C17.5450148,22.5602561 17.2837888,22.4662386 17.0979394,22.2773965 C16.9116913,22.0895632 16.8185672,21.8252649 16.8185672,21.485914 L16.8185672,8.17274737 C16.8185672,7.83339649 16.9116913,7.56990526 17.0979394,7.38126491 C17.2837888,7.19302807 17.5450148,7.09860702 17.8802216,7.09860702 C18.2156278,7.09860702 18.4762555,7.19302807 18.6625037,7.38126491 C18.848353,7.56990526 18.9418759,7.83339649 18.9418759,8.17274737 L18.9418759,9.4163614 C19.4818759,8.62487895 20.171034,8.01295789 21.0091507,7.57918596 C21.8472674,7.14561579 22.7505908,6.92913333 23.7191211,6.92913333 C24.5012038,6.92913333 25.1205687,7.03283509 25.5770162,7.23983509" id="Fill-3" fill="#FFFFFF"></path>
                <path d="M38.0239165,19.9598237 C38.8803789,19.4512009 39.5507925,18.7492974 40.0355561,17.8539114 C40.5193227,16.9593325 40.7616049,15.9554026 40.7616049,14.843736 C40.7616049,13.7129026 40.5193227,12.7002974 40.0355561,11.8049114 C39.5507925,10.9101307 38.8803789,10.2080254 38.0239165,9.69940263 C37.166856,9.19017456 36.1981263,8.93576228 35.1185251,8.93576228 C34.0564719,8.93576228 33.0927275,9.19017456 32.2268929,9.69940263 C31.3606595,10.2080254 30.6804749,10.9101307 30.1871366,11.8049114 C29.693599,12.7002974 29.4467304,13.7129026 29.4467304,14.843736 C29.4467304,15.9554026 29.693599,16.9593325 30.1871366,17.8539114 C30.6804749,18.7492974 31.3606595,19.4512009 32.2268929,19.9598237 C33.0927275,20.4684465 34.0564719,20.7228588 35.1185251,20.7228588 C36.1981263,20.7228588 37.166856,20.4684465 38.0239165,19.9598237 M31.1373213,21.6838149 C29.9540273,21.0057184 29.0279712,20.0683675 28.3571588,18.8715605 C27.6865458,17.675157 27.3515384,16.3324816 27.3515384,14.843736 C27.3515384,13.3551921 27.6865458,12.0076746 28.3571588,10.8015868 C29.0279712,9.59590263 29.9540273,8.65350789 31.1373213,7.97500789 C32.3198176,7.29630614 33.6468855,6.95715702 35.1185251,6.95715702 C36.5893671,6.95715702 37.9118486,7.29630614 39.0853715,7.97500789 C40.258695,8.65350789 41.1853493,9.59590263 41.8653346,10.8015868 C42.5447216,12.0076746 42.8847142,13.3551921 42.8847142,14.843736 C42.8847142,16.3324816 42.5497068,17.675157 41.8790938,18.8715605 C41.2086802,20.0683675 40.281627,21.0057184 39.099729,21.6838149 C37.9162356,22.3623149 36.5893671,22.7016658 35.1185251,22.7016658 C33.6468855,22.7016658 32.3198176,22.3623149 31.1373213,21.6838149" id="Fill-5" fill="#FFFFFF"></path>
                <path d="M58.8929424,8.08782895 C58.8929424,8.2008114 58.8648257,8.33296053 58.8089911,8.48367105 L52.6907194,21.8252851 C52.4486366,22.3155482 52.094486,22.5600746 51.629065,22.5600746 C51.1819897,22.5600746 50.8465835,22.3155482 50.6234446,21.8252851 L44.421421,8.51211842 C44.365387,8.39873246 44.3374697,8.26739035 44.3374697,8.11627632 C44.3374697,7.72063596 44.5420635,7.41941667 44.9522482,7.2118114 C45.0820635,7.13635526 45.2312216,7.09862719 45.3991241,7.09862719 C45.5849734,7.09862719 45.7574623,7.14563596 45.9157932,7.23985526 C46.0739247,7.33447807 46.190579,7.47570614 46.2649586,7.66394298 L51.629065,19.4227939 L56.9371374,7.66394298 C57.011517,7.47570614 57.1327578,7.32943421 57.3006603,7.22593421 C57.4679645,7.12243421 57.6542127,7.07038158 57.8592053,7.07038158 C58.026709,7.07038158 58.1754682,7.10851316 58.3062806,7.18356579 C58.6975214,7.37200439 58.8929424,7.67362719 58.8929424,8.08782895" id="Fill-7" fill="#FFFFFF"></path>
                <path d="M64.117901,10.2360088 C63.1864609,11.122114 62.6181448,12.2904737 62.413551,13.7412895 L72.6386544,13.7412895 C72.4894963,12.2904737 71.9684402,11.122114 71.0742895,10.2360088 C70.1801388,9.35071053 69.0349321,8.90765789 67.6378715,8.90765789 C66.2226647,8.90765789 65.0491418,9.35071053 64.117901,10.2360088 M71.2980266,7.93237719 C72.3592821,8.58263158 73.1836396,9.48265789 73.7703013,10.6318509 C74.3571625,11.7812456 74.6502939,13.0910351 74.6502939,14.5608158 C74.6502939,14.8624386 74.5571699,15.1027281 74.3709217,15.281886 C74.1846736,15.4610439 73.942192,15.5502193 73.6446736,15.5502193 L62.3577164,15.5502193 C62.506675,17.0954561 63.1025096,18.3485526 64.1458183,19.3099123 C65.1887282,20.2706667 66.4924653,20.7512456 68.0570295,20.7512456 C68.7276425,20.7512456 69.4024431,20.6336228 70.0824284,20.3979737 C70.7622142,20.1625263 71.307,19.8655439 71.7167858,19.5076316 C71.9586691,19.319193 72.2101241,19.2249737 72.4713501,19.2249737 C72.6761433,19.2249737 72.8807371,19.3006316 73.0859291,19.4511404 C73.3278124,19.6771053 73.4492526,19.9315175 73.4492526,20.2141754 C73.4492526,20.459307 73.3463575,20.6759912 73.1415643,20.8644298 C72.5271846,21.3922193 71.7449025,21.8300263 70.7951167,22.1784561 C69.8451315,22.527693 68.9324357,22.7016053 68.0570295,22.7016053 C66.5668449,22.7016053 65.23539,22.3672982 64.0620665,21.6982807 C62.888743,21.0292632 61.9708626,20.0967544 61.3102201,18.8995439 C60.6487799,17.7031404 60.3183589,16.351386 60.3183589,14.8436754 C60.3183589,13.317 60.6302349,11.9559649 61.2543855,10.7591579 C61.8781374,9.56255263 62.7441713,8.62984211 63.8526869,7.96082456 C64.9606041,7.29180702 66.2226647,6.95709649 67.6378715,6.95709649 C69.0159882,6.95709649 70.2361728,7.28232456 71.2980266,7.93237719" id="Fill-9" fill="#FFFFFF"></path>
                <g id="Group-13" transform="translate(77.370753, 0.044789)">
                    <mask id="mask-2" fill="white">
                        <use xlink:href="#path-1"></use>
                    </mask>
                    <g id="Clip-12"></g>
                    <path d="M3.18847267,21.6533904 C1.81972821,20.8901535 0.837239291,19.8585833 0.241005908,18.5580746 C0.166626292,18.4265307 0.12933678,18.2756184 0.12933678,18.1057412 C0.12933678,17.8420482 0.227047267,17.6211272 0.422667651,17.4415658 C0.618088626,17.2628114 0.883701625,17.1732325 1.21890842,17.1732325 C1.44244609,17.1732325 1.65202511,17.2345658 1.84744609,17.3568289 C2.04306647,17.4796974 2.18723929,17.6536096 2.28056278,17.8797763 C2.70909306,18.72775 3.42118316,19.4110921 4.41763072,19.9289956 C5.41387888,20.4477061 6.57344313,20.706557 7.89592467,20.706557 C9.42319941,20.706557 10.6523575,20.3345219 11.5837976,19.5896447 C12.5150384,18.8455746 12.9808582,17.8049254 12.9808582,16.4662851 C12.9808582,15.279364 12.5479409,14.2808816 11.6817075,13.4700307 C10.8156736,12.6601886 9.51632349,12.1418816 7.78445495,11.9155132 C5.62365731,11.6520219 3.92389365,10.9686798 2.68576219,9.86629386 C1.4470325,8.76390789 0.827667651,7.41215351 0.827667651,5.81002193 C0.827667651,4.67959211 1.13017134,3.68575 1.73577696,2.8276886 C2.34078434,1.97063596 3.17890103,1.31130263 4.25012703,0.849486842 C5.32095421,0.387671053 6.53615362,0.156864035 7.89592467,0.156864035 C9.36716544,0.156864035 10.6619291,0.486530702 11.779418,1.14626754 C12.8971064,1.80600439 13.7723131,2.66325877 14.405836,3.71823246 C14.5356514,3.92603947 14.6008582,4.15200439 14.6008582,4.39693421 C14.6008582,4.75484649 14.4335539,5.03770614 14.0981477,5.24470614 C13.9489897,5.32036404 13.781486,5.3576886 13.5952378,5.3576886 C13.3902452,5.3576886 13.1994106,5.30603947 13.0225347,5.20233772 C12.8456588,5.09883772 12.701486,4.95276754 12.5898168,4.76412719 C11.5463087,3.10610965 9.97257164,2.26741667 7.8684062,2.24865351 C6.3594771,2.24865351 5.16760857,2.56903947 4.29220236,3.20960965 C3.41659675,3.85038158 2.97889365,4.76412719 2.97889365,5.95145175 C2.97889365,8.15602193 4.73907829,9.49446053 8.25944756,9.96515351 C10.5684062,10.3045044 12.2913013,11.0207325 13.4279335,12.1134342 C14.5637681,13.2065395 15.1318848,14.6480746 15.1318848,16.4382412 C15.1318848,17.7571096 14.815223,18.8972237 14.182099,19.8585833 C13.5485761,20.8195395 12.6823427,21.5500921 11.5837976,22.0492325 C10.4848538,22.5481711 9.25569572,22.7983465 7.89592467,22.7983465 C6.1263678,22.7983465 4.55741654,22.4164254 3.18847267,21.6533904" id="Fill-11" fill="#FFFFFF" mask="url(#mask-2)"></path>
                </g>
                <path d="M108.566661,21.6558114 C108.566661,21.9384693 108.436048,22.1928816 108.17542,22.4188465 C107.951883,22.5887237 107.728544,22.6732588 107.504807,22.6732588 C107.206691,22.6732588 106.955236,22.5419167 106.750642,22.2774167 L100.995295,15.1264342 L98.8999032,17.0481447 L98.8999032,21.4859342 C98.8999032,21.8067237 98.8021928,22.0655746 98.6065724,22.2634956 C98.410952,22.4612149 98.1549106,22.5600746 97.8384483,22.5600746 C97.5213877,22.5600746 97.2657452,22.4612149 97.0701248,22.2634956 C96.8745044,22.0655746 96.7767939,21.8067237 96.7767939,21.4859342 L96.7767939,1.55845175 C96.7767939,1.23826754 96.8745044,0.978811404 97.0701248,0.780890351 C97.2657452,0.583171053 97.5213877,0.484109649 97.8384483,0.484109649 C98.1549106,0.484109649 98.410952,0.583171053 98.6065724,0.780890351 C98.8021928,0.978811404 98.8999032,1.23826754 98.8999032,1.55845175 L98.8999032,14.4194868 L106.77836,7.2118114 C106.983552,7.02357456 107.206691,6.92915351 107.449172,6.92915351 C107.728544,6.92915351 107.960856,7.04193421 108.147304,7.26810088 C108.352097,7.51343421 108.454792,7.73919737 108.454792,7.94639912 C108.454792,8.21069737 108.333352,8.44594298 108.091469,8.65354825 L102.504224,13.7692325 L108.315206,21.005557 C108.48271,21.1943991 108.566661,21.4110833 108.566661,21.6558114" id="Fill-14" fill="#FFFFFF"></path>
                <path d="M113.510991,22.2494535 C113.305999,22.0424535 113.203901,21.778357 113.203901,21.4579711 L113.203901,8.20069035 C113.203901,7.88070789 113.305999,7.61721667 113.510991,7.4096114 C113.715984,7.20220789 113.976612,7.09850614 114.293273,7.09850614 C114.610134,7.09850614 114.866176,7.20220789 115.061597,7.4096114 C115.257417,7.61721667 115.355127,7.88070789 115.355127,8.20069035 L115.355127,21.4579711 C115.355127,21.778357 115.257417,22.0424535 115.061597,22.2494535 C114.866176,22.456857 114.610134,22.5601553 114.293273,22.5601553 C113.976612,22.5601553 113.715984,22.456857 113.510991,22.2494535 M113.189942,3.7066114 C112.900799,3.40539211 112.756826,3.03799737 112.756826,2.60422544 C112.756826,2.15209386 112.905784,1.78429561 113.203901,1.50183947 C113.501619,1.21918158 113.864544,1.07775175 114.293273,1.07775175 C114.703258,1.07775175 115.05701,1.21918158 115.355127,1.50183947 C115.652845,1.78429561 115.802003,2.15209386 115.802003,2.60422544 C115.802003,3.03799737 115.652845,3.40539211 115.355127,3.7066114 C115.05701,4.00823421 114.693687,4.15874298 114.265555,4.15874298 C113.837025,4.15874298 113.478487,4.00823421 113.189942,3.7066114" id="Fill-16" fill="#FFFFFF"></path>
                <g id="Group-20" transform="translate(120.642541, 6.904439)">
                    <mask id="mask-4" fill="white">
                        <use xlink:href="#path-3"></use>
                    </mask>
                    <g id="Clip-19"></g>
                    <path d="M10.9858693,0.872486842 C12.0381514,1.43780263 12.8623095,2.26257456 13.4585428,3.34599561 C14.054178,4.42982018 14.3524941,5.72528509 14.3524941,7.23239035 L14.3524941,14.5814956 C14.3524941,14.8835219 14.249599,15.1379342 14.045404,15.3449342 C13.840212,15.5525395 13.5885576,15.655636 13.2908397,15.655636 C12.974178,15.655636 12.7135502,15.5525395 12.5085576,15.3449342 C12.3033656,15.1379342 12.2012681,14.8835219 12.2012681,14.5814956 L12.2012681,7.23239035 C12.2012681,5.55540789 11.7404335,4.27850439 10.8179668,3.40248684 C9.89629764,2.52606579 8.69027105,2.08785526 7.20028582,2.08785526 C6.28739069,2.08785526 5.46323264,2.26721491 4.72741285,2.62512719 C3.99199188,2.98303947 3.40991654,3.47774123 2.98158567,4.1090307 C2.5532548,4.74072368 2.33948818,5.44242544 2.33948818,6.21474123 L2.33948818,14.5814956 C2.33948818,14.9022851 2.24117947,15.161136 2.04575849,15.359057 C1.85013811,15.5567763 1.59429616,15.655636 1.27743501,15.655636 C0.960972674,15.655636 0.699746677,15.5567763 0.49535229,15.359057 C0.290160266,15.161136 0.188262186,14.9022851 0.188262186,14.5814956 L0.188262186,1.29637281 C0.188262186,0.976390351 0.290160266,0.712697368 0.49535229,0.50529386 C0.699746677,0.297688596 0.960972674,0.194188596 1.27743501,0.194188596 C1.59429616,0.194188596 1.85013811,0.297688596 2.04575849,0.50529386 C2.24117947,0.712697368 2.33948818,0.976390351 2.33948818,1.29637281 L2.33948818,2.2575307 C2.9538678,1.56067105 3.69826219,1.01391667 4.57406721,0.618074561 C5.44947341,0.222434211 6.39905982,0.0247149123 7.42362408,0.0247149123 C8.7459062,0.0247149123 9.93358715,0.307372807 10.9858693,0.872486842" id="Fill-18" fill="#FFFFFF" mask="url(#mask-4)"></path>
                </g>
                <path d="M51.6787777,7.10488158 L49.102212,7.10488158 C48.668497,7.10488158 48.3803508,7.5590307 48.5608161,7.95810088 L51.1373818,13.6534254 C51.3495532,14.1221009 52.0078028,14.1221009 52.2199742,13.6534254 L54.7965399,7.95810088 C54.9770052,7.5590307 54.6888589,7.10488158 54.255144,7.10488158 L51.6787777,7.10488158 Z" id="Fill-21" fill="#FFFFFF"></path>
            </g>
        </g>
    </g>
</svg>