<?xml version="1.0" encoding="UTF-8"?>
<svg width="128px" height="39px" viewBox="0 0 128 39" version="1.1" xmlns="http://www.w3.org/2000/svg" xmlns:xlink="http://www.w3.org/1999/xlink">
    <!-- Generator: Sketch 47 (45396) - http://www.bohemiancoding.com/sketch -->
    <title>Google Play</title>
    <desc>Created with Sketch.</desc>
    <defs></defs>
    <g id="Page-1" stroke="none" stroke-width="1" fill="none" fill-rule="evenodd">
        <g id="troveskin---web@2x" transform="translate(-653.000000, -411.000000)">
            <g id="Group-5" transform="translate(521.000000, 257.000000)">
                <g id="Google-Play" transform="translate(132.000000, 154.000000)">
                    <rect id="button" fill="#000000" x="0" y="0" width="127.595515" height="38.3385586" rx="3.99359985"></rect>
                    <text id="Download-on" font-family="Roboto-Regular, Roboto" font-size="8.98559967" font-weight="normal" letter-spacing="0.718847992" fill="#FFFFFF">
                        <tspan x="41.2905477" y="12.7923198">Download on</tspan>
                    </text>
                    <text id="play" font-family="Roboto-Light, Roboto" font-size="14.3769595" font-weight="300" fill="#FFFFFF">
                        <tspan x="87.4598368" y="29.7731194">play</tspan>
                    </text>
                    <path d="M41.1839985,24.5310856 C41.1839985,21.3322209 43.8159907,18.7199993 46.9570513,18.7199993 C48.6900503,18.7199993 49.9248121,19.4173297 50.856299,20.324966 L49.7623434,21.4429083 C49.1016375,20.8009216 48.1918131,20.3138973 46.9570513,20.3138973 C44.6716589,20.3138973 42.8845037,22.1955823 42.8845037,24.5310856 C42.8845037,26.8665888 44.6716589,28.7482739 46.9570513,28.7482739 C48.4409317,28.7482739 49.2857687,28.1394934 49.8273309,27.5860566 C50.2714118,27.1322385 50.5638554,26.4791831 50.6721679,25.5936842 L46.9570513,25.5936842 L46.9570513,24.010855 L52.188542,24.010855 C52.2426982,24.2986421 52.2751919,24.6307042 52.2751919,25.0070412 C52.2751919,26.2024647 51.9610858,27.6746065 50.9321177,28.7150677 C49.9356433,29.7776663 48.6575566,30.3421718 46.9678826,30.3421718 C43.8159907,30.3311031 41.1839985,27.7299502 41.1839985,24.5310856 L41.1839985,24.5310856 Z M56.4885457,22.8597065 C58.5139882,22.8597065 60.1603372,24.431467 60.1603372,26.6009392 C60.1603372,28.7593426 58.5139882,30.3421718 56.4885457,30.3421718 C54.4631031,30.3421718 52.8167541,28.7593426 52.8167541,26.6009392 C52.8167541,24.431467 54.4631031,22.8597065 56.4885457,22.8597065 Z M56.4885457,28.8589612 C57.5933325,28.8589612 58.5573132,27.9291874 58.5573132,26.5898704 C58.5573132,25.2394847 57.5933325,24.3207796 56.4885457,24.3207796 C55.3729276,24.3207796 54.4197781,25.2394847 54.4197781,26.5898704 C54.4197781,27.9291874 55.3837588,28.8589612 56.4885457,28.8589612 Z M64.5036659,22.8597065 C66.5291085,22.8597065 68.1754575,24.431467 68.1754575,26.6009392 C68.1754575,28.7593426 66.5291085,30.3421718 64.5036659,30.3421718 C62.4782234,30.3421718 60.8318743,28.7593426 60.8318743,26.6009392 C60.8318743,24.431467 62.4782234,22.8597065 64.5036659,22.8597065 Z M64.5036659,28.8589612 C65.6084528,28.8589612 66.5724334,27.9291874 66.5724334,26.5898704 C66.5724334,25.2394847 65.619284,24.3207796 64.5036659,24.3207796 C63.3880478,24.3207796 62.4348984,25.2394847 62.4348984,26.5898704 C62.4348984,27.9291874 63.3988791,28.8589612 64.5036659,28.8589612 Z M74.3384351,23.0810812 L74.3384351,23.0810812 L75.8764717,23.0810812 L75.8764717,29.7998038 C75.8764717,32.5669877 74.2842789,33.6959988 72.3996425,33.6959988 C70.6233185,33.6959988 69.5510254,32.4784378 69.1502694,31.4822516 L70.5474998,30.8845399 C70.7966184,31.4933204 71.4031681,32.2127882 72.3888112,32.2127882 C73.5910793,32.2127882 74.3384351,31.4490454 74.3384351,30.0211785 L74.3384351,29.4788104 L74.2842789,29.4788104 C73.9268478,29.9326286 73.2336482,30.3311031 72.3563175,30.3311031 C70.5258373,30.3311031 68.8469946,28.6929302 68.8469946,26.6009392 C68.8469946,24.4868106 70.5258373,22.8486377 72.3563175,22.8486377 C73.2336482,22.8486377 73.9268478,23.2471122 74.2842789,23.6898617 L74.3384351,23.6898617 L74.3384351,23.0810812 Z M72.4971237,28.8589612 C73.5910793,28.8589612 74.4575788,27.9181187 74.4467475,26.6009392 C74.4467475,25.2837596 73.5910793,24.3207796 72.4971237,24.3207796 C71.3923368,24.3207796 70.4608499,25.2837596 70.4608499,26.6009392 C70.4608499,27.90705 71.3923368,28.8589612 72.4971237,28.8589612 Z M76.9812585,19.1184738 L78.5842826,19.1184738 L78.5842826,30.1097284 L76.9812585,30.1097284 L76.9812585,19.1184738 Z M82.9925987,28.8589612 L82.9925987,28.8589612 C83.8157732,28.8589612 84.3789979,28.449418 84.8014164,27.8295688 L86.0470094,28.6818615 C85.6354221,29.2906419 84.6714414,30.3421718 82.9925987,30.3421718 C80.9129999,30.3421718 79.3641321,28.6929302 79.3641321,26.6009392 C79.3641321,24.3761233 80.9346624,22.8597065 82.8192988,22.8597065 C84.7147664,22.8597065 85.6462534,24.3982607 85.9495282,25.2394847 L86.1119968,25.6600966 L81.2162747,27.7299502 C81.5953683,28.4715555 82.1694242,28.8589612 82.9925987,28.8589612 Z M82.873455,24.2986421 C82.0502805,24.2986421 80.9129999,25.0402474 80.9563249,26.4791831 L84.2273605,25.0955911 C84.0540606,24.6196355 83.5124984,24.2986421 82.873455,24.2986421 Z" id="Google" fill="#FFFFFF"></path>
                    <path d="M9.58463965,29.5109349 L9.58463965,8.83003245 C9.58463965,8.10835411 10.0030335,7.48453294 10.6101947,7.18847974 L22.5731088,19.1669557 L10.6053835,31.1500789 C10.0008223,30.8531254 9.58463965,30.2307519 9.58463965,29.5109349 Z M26.3683831,22.9670107 L13.2876989,30.5289219 L23.6041191,20.1991761 L26.3683831,22.9670107 Z M30.4343493,17.7206307 C30.8694244,18.0540799 31.1500789,18.5794965 31.1500789,19.1704837 C31.1500789,19.7525902 30.8779291,20.270951 30.4540315,20.6050084 L27.6755525,22.2113062 L24.6350078,19.1669557 L27.6734871,16.1245274 L30.4343493,17.7206307 Z M13.2953653,7.81261721 L26.3663177,15.3688715 L23.6041191,18.1346137 L13.2953653,7.81261721 Z" id="logo" fill="#FFFFFF" fill-rule="nonzero"></path>
                </g>
            </g>
        </g>
    </g>
</svg>